<svg xmlns:dc="http://purl.org/dc/elements/1.1/" xmlns:cc="http://creativecommons.org/ns#" xmlns:rdf="http://www.w3.org/1999/02/22-rdf-syntax-ns#" xmlns:svg="http://www.w3.org/2000/svg" xmlns="http://www.w3.org/2000/svg" viewBox="0 0 280 280" fill="none"><metadata><rdf:RDF><cc:Work><dc:format>image/svg+xml</dc:format><dc:type rdf:resource="http://purl.org/dc/dcmitype/StillImage"/><dc:title>Avataaars</dc:title><dc:creator><cc:Agent><dc:title>Pablo Stanley</dc:title></cc:Agent></dc:creator><dc:source>https://avataaars.com/</dc:source><cc:license rdf:resource="https://avataaars.com/"/><dc:contributor><cc:Agent><dc:title>Florian Körner</dc:title></cc:Agent></dc:contributor></cc:Work></rdf:RDF></metadata><mask id="avatarsRadiusMask"><rect width="280" height="280" rx="0" ry="0" x="0" y="0" fill="#fff"/></mask><g mask="url(#avatarsRadiusMask)"><path d="M260 160c0 66.274-53.726 120-120 120S20 226.274 20 160 73.726 40 140 40s120 53.726 120 120z" fill="#65C9FF"/><mask id="a" maskUnits="userSpaceOnUse" x="8" y="0" width="264" height="280"><path fill-rule="evenodd" clip-rule="evenodd" d="M272 0H8v160h12c0 66.274 53.726 120 120 120s120-53.726 120-120h12V0z" fill="#fff"/></mask><g mask="url(#a)"><g transform="translate(40, 36)"><path d="M100 0C69.072 0 44 25.072 44 56v6.166c-5.675.952-10 5.888-10 11.834v14c0 6.052 4.48 11.058 10.305 11.881 2.067 19.806 14.458 36.541 31.695 44.73V163h-4c-39.764 0-72 32.236-72 72v9h200v-9c0-39.764-32.236-72-72-72h-4v-18.389c17.237-8.189 29.628-24.924 31.695-44.73C161.52 99.058 166 94.052 166 88V74c0-5.946-4.325-10.882-10-11.834V56c0-30.928-25.072-56-56-56z" fill="#FFDBB4"/><path d="M76 144.611v8A55.79 55.79 0 00100 158a55.789 55.789 0 0024-5.389v-8A55.789 55.789 0 01100 150a55.79 55.79 0 01-24-5.389z" fill="#000" fill-opacity=".1"/></g><g transform="translate(8, 170)"><path d="M132.5 51.828c18.502 0 33.5-9.617 33.5-21.48 0-.353-.013-.704-.04-1.053 36.976 3.03 66.04 34 66.04 71.757V110H32v-8.948c0-38.1 29.592-69.287 67.045-71.833-.03.374-.045.75-.045 1.129 0 11.863 14.998 21.48 33.5 21.48z" fill="#25557C"/><path d="M132.5 58.761c21.89 0 39.635-12.05 39.635-26.913 0-.603-.029-1.2-.086-1.793a72.056 72.056 0 00-6.089-.76c.027.349.04.7.04 1.053 0 11.863-14.998 21.48-33.5 21.48-18.502 0-33.5-9.617-33.5-21.48 0-.379.015-.755.045-1.128-2.05.139-4.077.364-6.077.672a18.592 18.592 0 00-.103 1.956c0 14.864 17.745 26.913 39.635 26.913z" fill="#000" fill-opacity=".08"/></g><g transform="translate(86, 134)"><path d="M40 16c0 5.372 6.158 9 14 9s14-3.628 14-9c0-1.105-.95-2-2-2-1.293 0-1.87.905-2 2-1.242 2.938-4.317 4.716-10 5-5.683-.284-8.758-2.062-10-5-.13-1.095-.707-2-2-2-1.05 0-2 .895-2 2z" fill="#000" fill-opacity=".6"/></g><g transform="translate(112, 122)"><path fill-rule="evenodd" clip-rule="evenodd" d="M16 8c0 4.418 5.373 8 12 8s12-3.582 12-8" fill="#000" fill-opacity=".16"/></g><g transform="translate(84, 90)"><path d="M36 22a6 6 0 11-12 0 6 6 0 0112 0z" fill="#000" fill-opacity=".6"/><path fill-rule="evenodd" clip-rule="evenodd" d="M70.61 24.955c1.576-3.918 5.54-6.85 10.36-7.188 4.805-.335 9.124 1.999 11.24 5.637.628 1.081-.091 2.052-.928 1.428-2.592-1.93-6.156-3-10.008-2.731-3.731.26-7.02 1.729-9.312 3.887-.838.789-1.814.113-1.353-1.033z" fill="#000" fill-opacity=".6"/></g><g transform="translate(84, 82)"><path d="M15.591 14.162c4.496-6.326 14.012-9.509 23.756-6.366a2 2 0 101.228-3.807c-11.408-3.68-22.74.11-28.244 7.856a2 2 0 103.26 2.317zm80.786 6.996c-3.914-5.509-14.647-8.598-23.892-6.328a2 2 0 01-.954-3.884c10.736-2.637 23.165.94 28.107 7.895a2 2 0 11-3.26 2.317z" fill="#000" fill-opacity=".6"/></g><g transform="translate(7, 0)"><path fill-rule="evenodd" clip-rule="evenodd" d="M88.183 37.856c5.141-3.832 11.219-7.116 17.559-8.378 6.447-1.282 10.359-1.593 16.705-.073 1.633.392 2.184.78 3.621-.148 1.211-.783 9.662-9.49 35.42-4.657 26.035 4.885 33.769 44.075 43.427 45.566 3.48.537 7.782-.384 7.916-2.527 3.964 6.034 5.008 14.007 3.327 21.074-1.446 6.086-4.496 11.804-9.989 15.137-4.725 2.867-11.259 4.116-16.721 3.587-2.485-.24-4.745-.763-7.031-1.766-2.759-1.209-4.957-3.391-7.665-4.543a53.896 53.896 0 009.176 6.418c1.64.907 3.304 1.532 5.113 2.024 1.236.336 3.762 1.481 4.956 1.182-7.807 1.396-15.16.18-22.319-3.163-3.231-1.508-6.339-3.332-9.191-5.476-2.833-2.13-6.094-4.307-8.311-7.11.931 1.204-.697-.586-.912-.805a67.764 67.764 0 01-1.787-1.895 74.075 74.075 0 01-2.931-3.391c-1.993-2.486-3.851-5.082-5.507-7.803-1.677-2.756-8.358-13.873-10.375-16.49 1.905 5.708 3.98 11.418 6.407 16.925-4.713-1.47-9.283-5.544-12.295-9.34-3.392-4.276-5.4-9.268-6.108-14.666-3.825 10.416-12.785 18.63-22.032 24.295 2.003-3.73 5.056-6.885 7.052-10.678-9.19 9.329-24.568 13.893-28.595 27.574-1.032-4.758-4.353-8.58-5.347-13.433-1.105-5.389-1.897-11.11-1.722-16.616.398-12.242 8.632-23.723 18.16-30.824z" fill="#2C1B18"/></g></g></g></svg>